<?xml version="1.0" encoding="UTF-8"?>
<svg width="40px" height="23px" viewBox="0 0 40 23" version="1.1" xmlns="http://www.w3.org/2000/svg" xmlns:xlink="http://www.w3.org/1999/xlink">
    <!-- Generator: Sketch 43.2 (39069) - http://www.bohemiancoding.com/sketch -->
    <title>Q2newlogo(PMS color) NO TAG</title>
    <desc>Created with Sketch.</desc>
    <defs></defs>
    <g id="Page-1" stroke="none" stroke-width="1" fill="77B53A" fill-rule="evenodd">
        <g id="Artboard" transform="translate(-35.000000, -27.000000)" fill="#77B53A">
            <g id="Q2newlogo(PMS-color)-NO-TAG" transform="translate(35.000000, 27.000000)">
                <path d="M19.7069032,19.0089184 C21.4115484,17.001177 22.4469032,14.3894874 22.4469032,11.5191138 C22.4457419,5.20178046 17.4507742,0.083883908 11.2848387,0.0832229885 C5.11980645,0.083883908 0.124322581,5.20178046 0.122129032,11.5191138 C0.12316129,17.3494816 4.38303226,22.1564816 9.88948387,22.8612862 L9.88948387,18.8508264 C8.43490323,18.5633264 7.14032258,17.8351253 6.12883871,16.8013149 C4.80612903,15.4425966 3.99374194,13.5879241 3.99206452,11.5191138 C3.99374194,9.44911379 4.80612903,7.59404483 6.12883871,6.23532644 C7.45425806,4.88044138 9.26522581,4.04913678 11.2848387,4.04728621 C13.3047097,4.04913678 15.1152903,4.88044138 16.441871,6.23532644 C17.7645806,7.59404483 18.5768387,9.44911379 18.5774839,11.5191138 C18.5768387,13.5879241 17.7645806,15.4425966 16.441871,16.8013149 C15.4250968,17.8402805 14.1226452,18.5698034 12.6603226,18.8549241 L12.6603226,22.9548724 L23.8367097,22.9548724 L23.8367097,19.0089184 L19.7069032,19.0089184 Z" id="Fill-1"></path>
                <path d="M25.2121935,19.0089184 L33.7329677,10.477769 C33.9808387,10.2235793 34.2394194,9.95379195 34.5080645,9.66814253 C34.7760645,9.3824931 35.0190323,9.08098161 35.2360645,8.76321149 C35.4527097,8.44583793 35.6336129,8.1126023 35.7785161,7.7635046 C35.9225161,7.41414253 35.9951613,7.04905057 35.9951613,6.66822874 C35.9951613,6.2028092 35.9072903,5.79013103 35.7321935,5.43006207 C35.5564516,5.07025747 35.3238065,4.76332644 35.0347742,4.50940115 C34.7452258,4.25547586 34.4093548,4.05984368 34.0275484,3.92197586 C33.6450968,3.7845046 33.2372258,3.71563678 32.8034194,3.71563678 C31.874,3.71563678 31.1090968,3.99084368 30.5102581,4.5409931 C29.9109032,5.09153908 29.5497419,5.8322977 29.4252258,6.76340115 L25.5216129,6.44602759 C25.6036774,5.4093092 25.8467742,4.4934069 26.2490968,3.70003908 C26.6516774,2.90627471 27.1733548,2.24495862 27.8142581,1.71569425 C28.454,1.18682644 29.1977419,0.784590805 30.0454839,0.509383908 C30.8921935,0.234705747 31.8115484,0.0967057471 32.8034194,0.0967057471 C33.7950323,0.0967057471 34.7192903,0.229286207 35.5772258,0.493521839 C36.434129,0.758418391 37.1831613,1.14968276 37.8238065,1.66810805 C38.4635484,2.18692989 38.970129,2.84824598 39.3425161,3.65245287 C39.7142581,4.45679195 39.9000645,5.39833793 39.9000645,6.47775172 C39.9000645,7.89595287 39.5847097,9.11812529 38.9547742,10.1445333 C38.3244516,11.1710736 37.514,12.1497632 36.5223871,13.0809989 L30.1125806,19.0089184 L39.9000645,19.0089184 L39.9000645,22.9548724 L25.2121935,22.9548724 L25.2121935,19.0089184 Z" id="Fill-3"></path>
            </g>
        </g>
    </g>
</svg>